<svg xmlns="http://www.w3.org/2000/svg" xmlns:xlink="http://www.w3.org/1999/xlink" aria-hidden="true" role="img" class="iconify iconify--logos" width="31.88" height="32" preserveAspectRatio="xMidYMid meet" viewBox="0 0 256 257"><defs><linearGradient id="IconifyId1813088fe1fbc01fb466" x1="-.828%" x2="57.636%" y1="-7.652%" y2="78.411%"><stop offset="0%" stop-color="#FF00B8"></stop><stop offset="100%" stop-color="#FF8C00"></stop></linearGradient></defs><path fill="url(#IconifyId1813088fe1fbc01fb466)" d="M255.153 37.938L134.897 252.976c-2.883 5.084-7.769 8.172-13.991 8.172c-6.223 0-11.109-3.088-13.991-8.172L.846 37.938c-2.883-5.084-.704-10.845 5.378-15.556l71.08-45.258c6.082-3.711 15.226-3.711 21.308 0l71.08 45.258c6.082 3.711 8.261 10.472 5.378 15.556Z"></path><path fill="#FFF" d="M185.432.063L96.44 17.557l51.142 67.544l54.183-50.696c1.305-1.93 3.028-3.431 5.442-4.209l4.953-1.42C202.5 10.854 207.528 6.452 212.50.059L185.432.063ZM185.431 485.901l-50.891-38.979l-34.545-63.51l4.305-11.443c1.075-2.854 3.444-5.177 6.379-6.747l7.957-4.271l54.406-30.145l12.93 73.080c7.59 42.038 20.457 84.677 37.438 126.846c6.778 13.287 13.22 26.198 19.482 38.747l-57.506 1.468Z"></path><path fill="#FFE411" d="M17.541 433.11C.596 174.754 92.502 16.663 212.75 0c60.907 11.772 118.737 72.55 159.595 178.945c36.51 91.537 46.299 186.75 14.656 258.655c-22.147 47.224-60.522 81.659-113.115 103.85c-92.862 39.142-201.273 15.562-256.895-125.344Z"></path></svg>
